<?xml version="1.0" encoding="UTF-8"?>
<svg width="13px" height="14px" viewBox="0 0 13 14" version="1.1" xmlns="http://www.w3.org/2000/svg" xmlns:xlink="http://www.w3.org/1999/xlink">
    <!-- Generator: Sketch Beta 43.2 (39068) - http://www.bohemiancoding.com/sketch -->
    <title>Group 5</title>
    <desc>Created with Sketch Beta.</desc>
    <defs></defs>
    <g id="Symbols" stroke="none" stroke-width="1" fill="none" fill-rule="evenodd">
        <g id="header/person" transform="translate(-1157.000000, -78.000000)" fill-rule="nonzero" fill="#F9F9FA">
            <g id="Group-5" transform="translate(1157.000000, 78.000000)">
                <path d="M0.209654843,8.50786577 C0.286255094,8.56212752 0.376087547,8.59008054 0.466652579,8.59008054 C0.52081761,8.59008054 0.575211572,8.58007383 0.627316226,8.55973154 L11.8273902,4.19506711 C12.0095275,4.12408054 12.1269691,3.9414698 12.1188191,3.74166443 C12.1106692,3.54185906 11.9787592,3.36981879 11.7914938,3.31466443 L0.591419874,0.0179463087 C0.550395472,0.00587248322 0.50840956,0 0.466652579,0 C0.369448553,0 0.273663899,0.0321342282 0.194316478,0.0934899329 C0.0808125786,0.181201342 0.0140563522,0.31847651 0.0140563522,0.464348993 L0.0140563522,8.12573154 C0.0141021384,8.27836913 0.0871768553,8.42118792 0.209654843,8.50786577 Z" id="Shape"></path>
                <path d="M0.852034717,9.16755705 C0.728457862,9.21571141 0.598791447,9.24009396 0.466652579,9.24009396 C0.308827673,9.24009396 0.155352453,9.20485906 0.0140563522,9.13819463 L0.0140563522,13.4887181 C0.0140563522,13.7450872 0.216705912,13.9530671 0.466606792,13.9530671 L1.95992252,13.9530671 C2.2098234,13.9530671 2.41247296,13.7450872 2.41247296,13.4887181 L2.41247296,8.55944966 L0.852034717,9.16755705 Z" id="Shape"></path>
            </g>
        </g>
    </g>
</svg>