<svg width="21px" height="14px" viewBox="0 0 21 14" version="1.1" xmlns="http://www.w3.org/2000/svg" xmlns:xlink="http://www.w3.org/1999/xlink">
    <!-- Generator: Sketch 43.2 (39069) - http://www.bohemiancoding.com/sketch -->
    <desc>Created with Sketch.</desc>
    <defs></defs>
    <g id="Symbols" stroke="none" stroke-width="1" fill="none" fill-rule="evenodd">
        <g id="userbar" transform="translate(-1092.000000, -21.000000)" fill="#F7F9FA">
            <path d="M1102.03308,21 C1097.47285,21 1093.57774,23.8363584 1092,27.8408231 C1093.57774,31.8448165 1097.47285,34.6816463 1102.03308,34.6816463 C1106.59379,34.6816463 1110.48842,31.8448165 1112.06663,27.8408231 C1110.48842,23.8363584 1106.59379,21 1102.03308,21 L1102.03308,21 Z M1102.03308,32.4010576 C1099.51585,32.4010576 1097.47285,30.3580499 1097.47285,27.8408231 C1097.47285,25.3231249 1099.51585,23.2801172 1102.03308,23.2801172 C1104.55078,23.2801172 1106.59379,25.3231249 1106.59379,27.8408231 C1106.59379,30.3580499 1104.55078,32.4010576 1102.03308,32.4010576 L1102.03308,32.4010576 Z M1102.03308,25.1043996 C1100.51897,25.1043996 1099.29666,26.3267159 1099.29666,27.8408231 C1099.29666,29.3549303 1100.51897,30.5772467 1102.03308,30.5772467 C1103.54719,30.5772467 1104.76951,29.3549303 1104.76951,27.8408231 C1104.76951,26.3267159 1103.54719,25.1043996 1102.03308,25.1043996 L1102.03308,25.1043996 Z" id="Fill-29"></path>
        </g>
    </g>
</svg>