<?xml version="1.0" encoding="UTF-8"?>
<svg width="15px" height="15px" viewBox="0 0 15 15" version="1.1" xmlns="http://www.w3.org/2000/svg" xmlns:xlink="http://www.w3.org/1999/xlink">
    <!-- Generator: Sketch Beta 43.2 (39068) - http://www.bohemiancoding.com/sketch -->
    <title>Fill 3</title>
    <desc>Created with Sketch Beta.</desc>
    <defs></defs>
    <g id="Symbols" stroke="none" stroke-width="1" fill="none" fill-rule="evenodd" opacity="0.600000024">
        <g id="header/person" transform="translate(-138.000000, -77.000000)" fill="#000000">
            <path d="M152.375156,77 L138.625313,77 C138.279844,77 138,77.2798437 138,77.6248437 L138,91.3751563 C138,91.7201563 138.279844,92 138.625313,92 L145.96875,92 L145.96875,86.375 L144.09375,86.375 L144.09375,84.03125 L145.96875,84.03125 L145.96875,82.15625 C145.96875,80.2189062 147.195469,79.2654687 148.92375,79.2654687 C149.751563,79.2654687 150.463125,79.3273438 150.670312,79.3545313 L150.670312,81.3795312 L149.471719,81.38 C148.531875,81.38 148.3125,81.8267188 148.3125,82.4820313 L148.3125,84.03125 L150.65625,84.03125 L150.1875,86.375 L148.3125,86.375 L148.35,92 L152.375156,92 C152.720156,92 153,91.7201563 153,91.3751563 L153,77.6248437 C153,77.2798437 152.720156,77 152.375156,77" id="Fill-3"></path>
        </g>
    </g>
</svg>