<?xml version="1.0" encoding="UTF-8"?>
<svg width="22px" height="21px" viewBox="0 0 22 21" version="1.1" xmlns="http://www.w3.org/2000/svg" xmlns:xlink="http://www.w3.org/1999/xlink">
    <!-- Generator: Sketch Beta 43.2 (39068) - http://www.bohemiancoding.com/sketch -->
    <title>skype</title>
    <desc>Created with Sketch Beta.</desc>
    <defs></defs>
    <g id="trainer/users" stroke="none" stroke-width="1" fill="none" fill-rule="evenodd">
        <g id="trainer/single" transform="translate(-1130.000000, -1224.000000)">
            <g id="skype" transform="translate(1125.000000, 1218.684246)">
                <g transform="translate(5.714286, 5.714286)" id="Shape">
                    <path d="M19.9349824,12.4423327 C20.0825049,11.773409 20.1607045,11.0820117 20.1607045,10.3707476 C20.1607045,5.0404227 15.7789198,0.718309198 10.3722975,0.718309198 C9.80214481,0.718309198 9.24284149,0.767060665 8.69896673,0.859420744 C7.82425832,0.315545988 6.78906458,0 5.67954599,0 C2.54331898,0 0.00225440313,2.50640313 0.00225440313,5.59902153 C0.00225440313,6.63160861 0.28764775,7.59874755 0.782136986,8.43062231 C0.651945205,9.05720548 0.583960861,9.70626223 0.583960861,10.3707476 C0.583960861,15.7029746 4.9657456,19.8641096 10.3717339,19.8641096 C10.984227,19.8641096 11.5832642,19.8083131 12.1637025,19.7024971 C12.9634521,20.1257613 13.8767671,20.5266223 14.8477808,20.5266223 C17.9833738,20.5266223 20.5244384,18.0208532 20.5244384,14.9282348 C20.5244384,14.0361252 20.3121018,13.1914286 19.9349824,12.4423327 Z" fill="#00AFF0"></path>
                    <path d="M14.8367906,14.3105988 C14.4590372,14.8474286 13.9061448,15.2694247 13.1782544,15.5727828 C12.4502935,15.8786771 11.5883366,16.0300744 10.591045,16.0300744 C9.39494325,16.0300744 8.40850098,15.8222466 7.63052055,15.4060274 C7.08023483,15.1071781 6.63196086,14.7069511 6.28689628,14.207953 C5.9430998,13.708955 5.77063796,13.2228493 5.77063796,12.7501292 C5.77063796,12.4769237 5.87391781,12.242184 6.08040705,12.0478121 C6.28689628,11.8509041 6.55052055,11.7541057 6.86930724,11.7541057 C7.1284227,11.7541057 7.34836791,11.829135 7.5266771,11.9824344 C7.7062544,12.1344658 7.85955382,12.3595538 7.98523679,12.6590372 C8.13980431,13.0150215 8.30592564,13.3119687 8.48613699,13.5498787 C8.66444618,13.7877886 8.91715068,13.9853307 9.24164384,14.1398982 C9.56747554,14.2931977 9.99524853,14.3713973 10.5236947,14.3713973 C11.2510215,14.3713973 11.8423092,14.2161957 12.2976986,13.90382 C12.7517495,13.5927828 12.9800783,13.2022074 12.9800783,12.7358982 C12.9800783,12.3664579 12.8569315,12.0643679 12.6119061,11.8354051 C12.3662466,11.6045401 12.0494325,11.4281331 11.6607593,11.3069589 C11.2727202,11.1844462 10.7532211,11.0548885 10.1016282,10.9182857 C9.23128767,10.7316634 8.50205871,10.5110137 7.91591389,10.2609159 C7.32906458,10.0088454 6.86219178,9.66702153 6.5183953,9.23410568 C6.17333072,8.79928767 6.00143249,8.26055577 6.00143249,7.61727593 C6.00143249,7.00288063 6.18291194,6.45837182 6.54720939,5.98184736 C6.9108728,5.50468885 7.43614873,5.13848924 8.12620744,4.88190998 C8.81499804,4.62540117 9.62573777,4.4977456 10.5563131,4.4977456 C11.3002661,4.4977456 11.94418,4.58306067 12.4874207,4.7517182 C13.0306614,4.92234834 13.480274,5.14807045 13.83809,5.42965949 C14.1966106,5.71124853 14.4588963,6.00622309 14.6237495,6.31599217 C14.7892368,6.6238591 14.8719452,6.92785127 14.8719452,7.22028963 C14.8719452,7.4889863 14.7692994,7.73274364 14.5628102,7.94761644 C14.3563209,8.16312329 14.0984736,8.27147554 13.7899726,8.27147554 C13.5083836,8.27147554 13.2948493,8.2060274 13.1485949,8.07717417 C13.0023405,7.94761644 12.8439687,7.73598434 12.6739726,7.44157339 C12.4526888,7.0208454 12.189135,6.6924775 11.88,6.45710372 C11.570865,6.22109589 11.0757417,6.10309198 10.3920235,6.10309198 C9.75902935,6.10309198 9.24720939,6.2301135 8.8585362,6.48725636 C8.46986301,6.74249706 8.27492759,7.05163209 8.27492759,7.41142074 C8.27492759,7.63333855 8.34227789,7.82700587 8.47373777,7.98925245 C8.60519765,8.15276712 8.7873816,8.29070841 9.02014873,8.40681018 C9.25037965,8.52354599 9.48511937,8.61463796 9.72176125,8.68191781 C9.95840313,8.748 10.350317,8.84353033 10.896728,8.97055186 C11.5791076,9.11744031 12.1980117,9.28032094 12.7521722,9.45736204 C13.3056986,9.63503718 13.7777143,9.85117808 14.1663875,10.1031781 C14.5544266,10.3571507 14.8584188,10.6791076 15.0758278,11.0677808 C15.2932368,11.4551859 15.4029276,11.9303718 15.4029276,12.4935499 C15.4031389,13.1670528 15.2133464,13.773135 14.8367906,14.3105988 Z" fill="#FFFFFF"></path>
                </g>
            </g>
        </g>
    </g>
</svg>