<?xml version="1.0" encoding="UTF-8"?>
<svg width="17px" height="17px" viewBox="0 0 17 17" version="1.1" xmlns="http://www.w3.org/2000/svg" xmlns:xlink="http://www.w3.org/1999/xlink">
    <!-- Generator: Sketch 43.2 (39069) - http://www.bohemiancoding.com/sketch -->
    <title>Fill 101</title>
    <desc>Created with Sketch.</desc>
    <defs></defs>
    <g id="user" stroke="none" stroke-width="1" fill="none" fill-rule="evenodd">
        <g id="progs/loading/md" transform="translate(-439.000000, -392.000000)" fill="#FCF8EB">
            <path d="M447.4915,392 C442.7995,392 439,395.808 439,400.5 C439,405.192 442.7995,409 447.4915,409 C452.192,409 456,405.192 456,400.5 C456,395.808 452.192,392 447.4915,392 L447.4915,392 Z M447.5,407.3 C443.743,407.3 440.7,404.257 440.7,400.5 C440.7,396.743 443.743,393.7 447.5,393.7 C451.257,393.7 454.3,396.743 454.3,400.5 C454.3,404.257 451.257,407.3 447.5,407.3 L447.5,407.3 Z M447.925,396.25 L446.65,396.25 L446.65,401.35 L451.1125,404.0275 L451.75,402.982 L447.925,400.7125 L447.925,396.25" id="Fill-101"></path>
        </g>
    </g>
</svg>