<?xml version="1.0" encoding="UTF-8"?>
<svg width="22px" height="21px" viewBox="0 0 22 21" version="1.1" xmlns="http://www.w3.org/2000/svg" xmlns:xlink="http://www.w3.org/1999/xlink">
    <!-- Generator: Sketch Beta 43.2 (39068) - http://www.bohemiancoding.com/sketch -->
    <title>Shape</title>
    <desc>Created with Sketch Beta.</desc>
    <defs></defs>
    <g id="trainer/users" stroke="none" stroke-width="1" fill="none" fill-rule="evenodd">
        <g id="trainer/single" transform="translate(-1131.000000, -1044.000000)" fill="#35AEBA">
            <g id="Group-5" transform="translate(1126.000000, 1038.684246)">
                <path d="M26.1569922,22.0817406 L26.0547806,21.7737717 C25.8127005,21.0542451 25.0192373,20.3038183 24.2902857,20.1061088 L21.592416,19.3691094 C20.8607962,19.1700658 19.817162,19.4377095 19.2818745,19.972954 L18.3054632,20.9493652 C14.7569779,19.9905129 11.9744124,17.2078613 11.0168512,13.6600646 L11.9933054,12.6836103 C12.5285929,12.1483228 12.7961937,11.1060658 12.59715,10.3744459 L11.8614848,7.67524208 C11.6624411,6.94495637 10.9106372,6.15149313 10.1924877,5.91208129 L9.88451883,5.80853556 C9.16499223,5.56912373 8.13883084,5.81124686 7.60358637,6.34649133 L6.14301494,7.80839689 C5.88208488,8.06794979 5.71531859,8.81032875 5.71531859,8.81304005 C5.66423431,13.4502188 7.48252481,17.9179199 10.7626778,21.198116 C14.034783,24.4702212 18.485743,26.2858434 23.1094513,26.2468524 C23.1336378,26.2468524 23.897535,26.0827543 24.158465,25.8231584 L25.6190365,24.362587 C26.1542809,23.8273855 26.396361,22.8012672 26.1569922,22.0817406 Z" id="Shape"></path>
            </g>
        </g>
    </g>
</svg>