<?xml version="1.0" encoding="UTF-8"?>
<svg width="18px" height="21px" viewBox="0 0 18 21" version="1.1" xmlns="http://www.w3.org/2000/svg" xmlns:xlink="http://www.w3.org/1999/xlink">
    <!-- Generator: Sketch 43.2 (39069) - http://www.bohemiancoding.com/sketch -->
    <title>Group</title>
    <desc>Created with Sketch.</desc>
    <defs></defs>
    <g id="trainer/plan" stroke="none" stroke-width="1" fill="none" fill-rule="evenodd">
        <g id="food/builder" transform="translate(-509.000000, -881.000000)" fill-rule="nonzero" fill="#F7F9FA">
            <g id="Group" transform="translate(509.000000, 881.000000)">
                <path d="M17.7431281,1.27258264 C17.778887,0.948514463 17.6731094,0.624402893 17.4523388,0.382121901 C17.2304218,0.139320248 16.9142794,0 16.5848652,0 L1.19587364,0 C0.864783928,0 0.548641535,0.139320248 0.328179614,0.381427686 C0.107673602,0.623708678 0.0019400649,0.94777686 0.037654896,1.27188843 C0.298637717,3.63308678 1.52511147,5.77716942 3.42809467,7.23371901 C1.84883776,8.67664463 0.860330597,10.7369876 0.860330597,13.0248161 C0.860330597,14.9032314 1.52665471,16.6281818 2.638841,17.984157 L1.51073735,19.2193822 C1.11760966,19.6498822 1.15363314,20.3123802 1.59116186,20.6992314 C1.79429548,20.8792934 2.04875262,20.967936 2.30254839,20.967936 C2.59408723,20.967936 2.88461195,20.850657 3.0950649,20.620655 L4.18436725,19.4280372 C5.50678603,20.3708678 7.13242814,20.927064 8.89039149,20.927064 C10.6483548,20.927064 12.2739969,20.3709112 13.5964157,19.4280372 L14.6857622,20.6206983 C14.896171,20.8507004 15.1866957,20.9679793 15.4782787,20.9679793 C15.7316776,20.9679793 15.9864875,20.8793368 16.1896211,20.6992748 C16.6271498,20.3124236 16.6631733,19.6499256 16.2700456,19.2194256 L15.1418979,17.9842004 C16.2540401,16.6282252 16.9204083,14.9032748 16.9204083,13.0248595 C16.9204083,10.737031 15.9319011,8.67668802 14.3526442,7.2337624 C16.2556715,5.77716942 17.4821893,3.63317355 17.7431281,1.27258264 Z M8.89039149,18.4040702 C5.87147414,18.4040702 3.42430273,15.9962727 3.42430273,13.0248161 C3.42430273,10.0542273 5.87147414,7.64634298 8.89039149,7.64634298 C11.9092647,7.64634298 14.3563921,10.0542273 14.3563921,13.0248161 C14.3564362,15.9962727 11.9092647,18.4040702 8.89039149,18.4040702 Z" id="Shape"></path>
                <path d="M9.28598836,11.999374 L8.31145848,9.1781281 C8.18526608,8.81314463 7.78173258,8.61798347 7.41078336,8.74159711 C7.03952548,8.86642562 6.8408452,9.26277893 6.9670376,9.6285 L7.94152338,12.4490083 C7.83614258,12.6167913 7.7723409,12.8132975 7.7723409,13.0248161 C7.7723409,13.6327748 8.27296583,14.1253636 8.89039149,14.1253636 C9.50781714,14.1253636 10.0084421,13.6327314 10.0084421,13.0248161 C10.0084421,12.5553533 9.70751155,12.1570041 9.28598836,11.999374 Z" id="Shape"></path>
            </g>
        </g>
    </g>
</svg>