<?xml version="1.0" encoding="UTF-8"?>
<svg width="17px" height="14px" viewBox="0 0 17 14" version="1.1" xmlns="http://www.w3.org/2000/svg" xmlns:xlink="http://www.w3.org/1999/xlink">
    <!-- Generator: Sketch Beta 43.2 (39068) - http://www.bohemiancoding.com/sketch -->
    <title>Group 4</title>
    <desc>Created with Sketch Beta.</desc>
    <defs></defs>
    <g id="Symbols" stroke="none" stroke-width="1" fill="none" fill-rule="evenodd">
        <g id="users/list" transform="translate(-469.000000, -39.000000)" fill-rule="nonzero" fill="#F9F9FA">
            <g id="Group-4" transform="translate(469.000000, 39.000000)">
                <path d="M1.46312281,10.3331011 C0.304799342,10.3331011 0.304799342,11.0173184 0.304799342,11.3725094 C0.304799342,13.7702846 2.87047588,13.9904045 6.03543531,13.9904045 L10.2614704,13.9904045 C13.4264298,13.9904045 15.9921064,13.5719775 15.9921064,11.3725094 C15.9921064,11.0173184 15.8811579,10.3331011 14.8447434,10.3331011 L1.46312281,10.3331011 Z" id="Shape"></path>
                <path d="M16.2970132,8.49585019 C16.2970132,8.88853184 15.9678213,9.20979775 15.5654518,9.20979775 L0.731561404,9.20979775 C0.329191886,9.20979775 0,8.88853184 0,8.49585019 L0,7.96049438 C0,7.56781273 0.329191886,7.24654682 0.731561404,7.24654682 L15.5654518,7.24654682 C15.9678213,7.24654682 16.2970132,7.56781273 16.2970132,7.96049438 L16.2970132,8.49585019 L16.2970132,8.49585019 Z" id="Shape"></path>
                <path d="M8.43262061,0.0265842697 L7.86439254,0.0265842697 C4.69948684,0.0265842697 0.30485307,1.93556554 0.30485307,5.0243221 C0.30485307,5.37951311 0.415801535,6.0636779 1.45216228,6.0636779 L14.8338904,6.0636779 C15.9922138,6.0636779 15.9922138,5.37951311 15.9922138,5.0243221 C15.9921601,1.93556554 11.5975263,0.0265842697 8.43262061,0.0265842697 Z M4.71479934,3.98921348 C4.41236404,4.48146816 3.89147039,4.71910112 3.55131798,4.52005993 C3.21116557,4.32096629 3.1805943,3.76065169 3.48302961,3.268397 C3.78546491,2.77619476 4.30635855,2.53850936 4.64651096,2.737603 C4.98660965,2.93664419 5.01723465,3.49701124 4.71479934,3.98921348 Z M8.14850658,4.71401498 C7.76972368,4.71401498 7.46261404,4.2281573 7.46261404,3.62883146 C7.46261404,3.02950562 7.76972368,2.54364794 8.14850658,2.54364794 C8.52728947,2.54364794 8.83439912,3.02950562 8.83439912,3.62883146 C8.83439912,4.2281573 8.52728947,4.71401498 8.14850658,4.71401498 Z M12.7456952,4.52005993 C12.4055428,4.71910112 11.8846491,4.48146816 11.5822138,3.98921348 C11.2797785,3.49701124 11.3103498,2.93664419 11.6505022,2.737603 C11.9906546,2.53850936 12.5115482,2.77619476 12.8139836,3.268397 C13.1164726,3.76065169 13.0859013,4.32096629 12.7456952,4.52005993 Z" id="Shape"></path>
            </g>
        </g>
    </g>
</svg>