<?xml version="1.0" encoding="UTF-8"?>
<svg width="18px" height="15px" viewBox="0 0 18 15" version="1.1" xmlns="http://www.w3.org/2000/svg" xmlns:xlink="http://www.w3.org/1999/xlink">
    <!-- Generator: Sketch Beta 43.2 (39068) - http://www.bohemiancoding.com/sketch -->
    <title>Group</title>
    <desc>Created with Sketch Beta.</desc>
    <defs></defs>
    <g id="trainer/users" stroke="none" stroke-width="1" fill="none" fill-rule="evenodd">
        <g id="trainer/actions" transform="translate(-135.000000, -544.000000)" fill-rule="nonzero" fill="#FFFFFF">
            <g id="Group" transform="translate(135.000000, 544.000000)">
                <path d="M8.57714286,9.47538462 L8.57714286,5.16230769 C8.57714286,4.87961538 8.80571429,4.64653846 9.09028571,4.64653846 L16.6502857,4.64653846 L16.6502857,2.08730769 C16.6502857,1.37423077 16.0822857,0.789230769 15.3885714,0.789230769 L1.26171429,0.789230769 C0.566857143,0.789230769 0,1.37423077 0,2.08730769 L0,13.6246154 C0,14.3388462 0.568,14.9226923 1.26171429,14.9226923 L15.3897143,14.9226923 C16.0845714,14.9226923 16.6514286,14.3388462 16.6514286,13.6246154 L16.6514286,9.99 L9.09142857,9.99 C8.80571429,9.99115385 8.57714286,9.76038462 8.57714286,9.47538462 Z M17.4422857,5.43346154 L9.82171429,5.43346154 C9.59885714,5.43346154 9.416,5.59615385 9.416,5.79923077 L9.416,8.84192308 C9.416,9.04269231 9.59771429,9.20769231 9.82171429,9.20769231 L17.4422857,9.20769231 C17.6662857,9.20769231 17.848,9.04384615 17.848,8.84192308 L17.848,5.79923077 C17.848,5.595 17.6662857,5.43346154 17.4422857,5.43346154 Z M11.4034286,8.50269231 C10.7542857,8.50269231 10.2308571,7.97192308 10.2308571,7.31884615 C10.2308571,6.66346154 10.7554286,6.135 11.4034286,6.135 C12.0514286,6.135 12.576,6.66461538 12.576,7.31884615 C12.576,7.97307692 12.0502857,8.50269231 11.4034286,8.50269231 Z" id="Shape"></path>
            </g>
        </g>
    </g>
</svg>