<?xml version="1.0" encoding="UTF-8"?>
<svg width="16px" height="16px" viewBox="0 0 16 16" version="1.1" xmlns="http://www.w3.org/2000/svg" xmlns:xlink="http://www.w3.org/1999/xlink">
    <!-- Generator: Sketch Beta 43.2 (39068) - http://www.bohemiancoding.com/sketch -->
    <title>Fill 23</title>
    <desc>Created with Sketch Beta.</desc>
    <defs></defs>
    <g id="Symbols" stroke="none" stroke-width="1" fill="none" fill-rule="evenodd" opacity="0.600000024">
        <g id="header/person" transform="translate(-159.000000, -77.000000)" fill="#000000">
            <path d="M173,91.5 L161,91.5 C160.724,91.5 160.5,91.276 160.5,91 L160.5,83.5 L162.5,83.5 C162.2395,83.875 162.1515,84.5745 162.1515,85.0185 C162.1515,87.696 164.335,89.8745 167.0185,89.8745 C169.7025,89.8745 171.886,87.696 171.886,85.0185 C171.886,84.5745 171.823,83.8855 171.5,83.5 L173.5,83.5 L173.5,91 C173.5,91.276 173.276,91.5 173,91.5 M167.0185,81.949 C168.718,81.949 170.0955,83.3235 170.0955,85.0185 C170.0955,86.714 168.718,88.0885 167.0185,88.0885 C165.3195,88.0885 163.942,86.714 163.942,85.0185 C163.942,83.3235 165.3195,81.949 167.0185,81.949 M171,79 L172.5,79 C172.776,79 173,79.224 173,79.5 L173,81 C173,81.276 172.776,81.5 172.5,81.5 L171,81.5 C170.724,81.5 170.5,81.276 170.5,81 L170.5,79.5 C170.5,79.224 170.724,79 171,79 M173.098,77 L160.902,77 C159.8515,77 159,77.8495 159,78.8975 L159,91.1025 C159,92.1505 159.8515,93 160.902,93 L173.098,93 C174.1485,93 175,92.1505 175,91.1025 L175,78.8975 C175,77.8495 174.1485,77 173.098,77" id="Fill-23"></path>
        </g>
    </g>
</svg>