<?xml version="1.0" encoding="UTF-8"?>
<svg width="22px" height="22px" viewBox="0 0 22 22" version="1.1" xmlns="http://www.w3.org/2000/svg" xmlns:xlink="http://www.w3.org/1999/xlink">
    <!-- Generator: Sketch 43.2 (39069) - http://www.bohemiancoding.com/sketch -->
    <title>Fill 154</title>
    <desc>Created with Sketch.</desc>
    <defs></defs>
    <g id="user" stroke="none" stroke-width="1" fill="none" fill-rule="evenodd" opacity="0.200000003">
        <g id="plans/basic/xs" transform="translate(-356.000000, -22.000000)" fill="#FFFFFF">
            <path d="M364.665556,37.3877778 L366.388889,39.1111111 L372.5,33 L366.388889,26.8888889 L364.665556,28.6122222 L367.818889,31.7777778 L356,31.7777778 L356,34.2222222 L367.818889,34.2222222 L364.665556,37.3877778 L364.665556,37.3877778 Z M375.555556,22 L358.444444,22 C357.087778,22 356,23.1 356,24.4444444 L356,29.3333333 L358.444444,29.3333333 L358.444444,24.4444444 L375.555556,24.4444444 L375.555556,41.5555556 L358.444444,41.5555556 L358.444444,36.6666667 L356,36.6666667 L356,41.5555556 C356,42.9 357.087778,44 358.444444,44 L375.555556,44 C376.9,44 378,42.9 378,41.5555556 L378,24.4444444 C378,23.1 376.9,22 375.555556,22 L375.555556,22 Z" id="Fill-154"></path>
        </g>
    </g>
</svg>