<?xml version="1.0" encoding="UTF-8"?>
<svg width="18px" height="15px" viewBox="0 0 18 15" version="1.1" xmlns="http://www.w3.org/2000/svg" xmlns:xlink="http://www.w3.org/1999/xlink">
    <!-- Generator: Sketch Beta 43.2 (39068) - http://www.bohemiancoding.com/sketch -->
    <title>Group</title>
    <desc>Created with Sketch Beta.</desc>
    <defs></defs>
    <g id="trainer/users" stroke="none" stroke-width="1" fill="none" fill-rule="evenodd" opacity="0.900000036">
        <g id="trainer/form-compare" transform="translate(-148.000000, -463.000000)" fill-rule="nonzero" fill="#FFFFFF">
            <g id="Group" transform="translate(148.000000, 463.000000)">
                <path d="M17.3406601,14.2531944 L17.3406601,2.07305556 C17.3406601,1.69916667 17.0301639,1.39625 16.6472045,1.39625 L13.1789301,1.39625 C12.7958283,1.39625 12.4854745,1.69916667 12.4854745,2.07305556 L12.4854745,14.2531944 C12.4854745,14.6272222 12.7958283,14.93 13.1789301,14.93 L16.6470621,14.93 C17.0301639,14.93 17.3406601,14.6272222 17.3406601,14.2531944 Z" id="Shape"></path>
                <path d="M6.58960742,14.93 L10.4045384,14.93 C10.7876402,14.93 11.0981363,14.6272222 11.0981363,14.2531944 L11.0981363,0.719583333 C11.0981363,0.345694444 10.7876402,0.0429166667 10.4045384,0.0429166667 L6.58960742,0.0429166667 C6.20636324,0.0429166667 5.89586713,0.345694444 5.89586713,0.719583333 L5.89586713,14.2531944 C5.89586713,14.6272222 6.20622088,14.93 6.58960742,14.93 Z" id="Shape"></path>
                <path d="M0.693597929,5.45638889 C0.310353753,5.45638889 0,5.75916667 0,6.13305556 L0,14.2531944 C0,14.6272222 0.310353753,14.93 0.693597929,14.93 L4.16172994,14.93 C4.54497412,14.93 4.85532787,14.6272222 4.85532787,14.2531944 L4.85532787,6.13305556 C4.85532787,5.75916667 4.54497412,5.45638889 4.16172994,5.45638889 L0.693597929,5.45638889 Z" id="Shape"></path>
            </g>
        </g>
    </g>
</svg>