<?xml version="1.0" encoding="UTF-8"?>
<svg width="22px" height="17px" viewBox="0 0 22 17" version="1.1" xmlns="http://www.w3.org/2000/svg" xmlns:xlink="http://www.w3.org/1999/xlink">
    <!-- Generator: Sketch Beta 43.2 (39068) - http://www.bohemiancoding.com/sketch -->
    <title>mail</title>
    <desc>Created with Sketch Beta.</desc>
    <defs></defs>
    <g id="trainer/users" stroke="none" stroke-width="1" fill="none" fill-rule="evenodd">
        <g id="trainer/single" transform="translate(-1130.000000, -1133.000000)">
            <g id="mail" transform="translate(1125.000000, 1125.684246)">
                <g transform="translate(5.714286, 8.000000)" id="Shape">
                    <polygon fill="#F2F2F2" points="19.4855223 2.67453894 18.1722857 15.7974311 2.39914286 15.7974311 1.34112054 2.92851312 10.2857143 7.91211662"></polygon>
                    <polygon fill="#F2F2F2" points="19.0400625 0.20256893 10.2857143 8.38619908 1.53136607 0.20256893 10.2857143 0.20256893"></polygon>
                    <path d="M2.39914286,3.98139442 L2.39914286,15.7974311 L0.969870536,15.7974311 C0.434410714,15.7974311 0,15.3651712 0,14.8322732 L0,2.24107955 L1.56696429,2.28358184 L2.39914286,3.98139442 Z" fill="#F14336"></path>
                    <path d="M20.5714286,2.24107955 L20.5714286,14.8323132 C20.5714286,15.3651712 20.1370179,15.7974711 19.6010357,15.7974711 L18.1722857,15.7974711 L18.1722857,3.98139442 L18.9634821,2.12116951 L20.5714286,2.24107955 Z" fill="#D32E2A"></path>
                    <path d="M20.5714286,1.16772678 L20.5714286,2.24107955 L18.1722857,3.98139442 L10.2857143,9.70173095 L2.39914286,3.98139442 L0,2.24107955 L0,1.16772678 C0,0.634868805 0.434410714,0.20256893 0.969870536,0.20256893 L1.53136607,0.20256893 L10.2857143,6.55228322 L19.0400625,0.20256893 L19.6010357,0.20256893 C20.1370179,0.20256893 20.5714286,0.634828821 20.5714286,1.16772678 Z" fill="#F14336"></path>
                    <polygon fill="#D32E2A" points="2.39914286 3.98139442 0 3.61122865 0 2.24107955"></polygon>
                </g>
            </g>
        </g>
    </g>
</svg>