<?xml version="1.0" encoding="UTF-8"?>
<svg width="16px" height="16px" viewBox="0 0 16 16" version="1.1" xmlns="http://www.w3.org/2000/svg" xmlns:xlink="http://www.w3.org/1999/xlink">
    <!-- Generator: Sketch Beta 43.2 (39068) - http://www.bohemiancoding.com/sketch -->
    <title>Shape</title>
    <desc>Created with Sketch Beta.</desc>
    <defs></defs>
    <g id="Symbols" stroke="none" stroke-width="1" fill="none" fill-rule="evenodd">
        <g id="users/list" transform="translate(-510.000000, -38.000000)" fill-rule="nonzero" fill="#F9F9FA">
            <path d="M525.988926,42.7886431 L524.407575,41.2072917 L524.709142,40.9057243 C525.158144,40.4567224 525.158144,39.7288197 524.709142,39.2798178 C524.26014,38.8308159 523.532204,38.8308159 523.083236,39.2798178 L522.781668,39.5813852 L521.200385,38 L519.571839,39.628613 L518.14523,38.2019358 L516.516718,39.8304811 L519.524646,42.8384758 L514.838307,47.5247132 L511.83038,44.5168538 L510.201902,46.1453314 L511.628511,47.5719071 L510,49.2004186 L511.581284,50.7817023 L511.279716,51.0833374 C510.830714,51.5323393 510.830714,52.2602758 511.279716,52.7092439 C511.728718,53.1582119 512.456655,53.1582457 512.905657,52.7092439 L513.207224,52.4077103 L514.785937,53.9863552 L516.416343,52.3597044 L517.843696,53.7871258 L519.469671,52.1612193 L516.46171,49.1531908 L521.150552,44.4643146 L524.158513,47.4723431 L525.787024,45.8437979 L524.360415,44.4171546 L525.988926,42.7886431 Z" id="Shape"></path>
        </g>
    </g>
</svg>