<?xml version="1.0" encoding="UTF-8"?>
<svg width="77px" height="88px" viewBox="0 0 77 88" version="1.1" xmlns="http://www.w3.org/2000/svg" xmlns:xlink="http://www.w3.org/1999/xlink">
    <!-- Generator: Sketch 43.2 (39069) - http://www.bohemiancoding.com/sketch -->
    <title>report-done</title>
    <desc>Created with Sketch.</desc>
    <defs></defs>
    <g id="user" stroke="none" stroke-width="1" fill="none" fill-rule="evenodd">
        <g id="fill/complete/xs" transform="translate(-513.000000, -295.000000)">
            <g id="report-done" transform="translate(513.000000, 295.000000)">
                <g id="file" fill-rule="nonzero">
                    <g id="Group">
                        <polygon id="Shape" fill="#EFEBDE" points="68.25 21.2413793 47.25 0 0.75 0 0.75 88 68.25 88"></polygon>
                        <g transform="translate(13.500000, 19.724138)" id="Shape" fill="#D5D0BB">
                            <path d="M2.25,15.1724138 L39.75,15.1724138 C40.578,15.1724138 41.25,14.4942069 41.25,13.6551724 C41.25,12.8161379 40.578,12.137931 39.75,12.137931 L2.25,12.137931 C1.422,12.137931 0.75,12.8161379 0.75,13.6551724 C0.75,14.4942069 1.422,15.1724138 2.25,15.1724138 Z"></path>
                            <path d="M2.25,3.03448276 L17.25,3.03448276 C18.078,3.03448276 18.75,2.35627586 18.75,1.51724138 C18.75,0.678206897 18.078,0 17.25,0 L2.25,0 C1.422,0 0.75,0.678206897 0.75,1.51724138 C0.75,2.35627586 1.422,3.03448276 2.25,3.03448276 Z"></path>
                            <path d="M39.75,24.2758621 L2.25,24.2758621 C1.422,24.2758621 0.75,24.954069 0.75,25.7931034 C0.75,26.6321379 1.422,27.3103448 2.25,27.3103448 L39.75,27.3103448 C40.578,27.3103448 41.25,26.6321379 41.25,25.7931034 C41.25,24.954069 40.578,24.2758621 39.75,24.2758621 Z"></path>
                            <path d="M39.75,36.4137931 L2.25,36.4137931 C1.422,36.4137931 0.75,37.092 0.75,37.9310345 C0.75,38.770069 1.422,39.4482759 2.25,39.4482759 L39.75,39.4482759 C40.578,39.4482759 41.25,38.770069 41.25,37.9310345 C41.25,37.092 40.578,36.4137931 39.75,36.4137931 Z"></path>
                            <path d="M39.75,48.5517241 L2.25,48.5517241 C1.422,48.5517241 0.75,49.229931 0.75,50.0689655 C0.75,50.908 1.422,51.5862069 2.25,51.5862069 L39.75,51.5862069 C40.578,51.5862069 41.25,50.908 41.25,50.0689655 C41.25,49.229931 40.578,48.5517241 39.75,48.5517241 Z"></path>
                        </g>
                        <polygon id="Shape" fill="#D5D0BB" points="47.25 0 47.25 21.2413793 68.25 21.2413793"></polygon>
                    </g>
                </g>
                <g id="Group-Copy" transform="translate(50.000000, 50.000000)">
                    <circle id="Oval-Copy" fill="#5491E7" cx="13.5" cy="13.5" r="13.5"></circle>
                    <path d="M13.4915,5 C8.7995,5 5,8.808 5,13.5 C5,18.192 8.7995,22 13.4915,22 C18.192,22 22,18.192 22,13.5 C22,8.808 18.192,5 13.4915,5 L13.4915,5 Z M13.5,20.3 C9.743,20.3 6.7,17.257 6.7,13.5 C6.7,9.743 9.743,6.7 13.5,6.7 C17.257,6.7 20.3,9.743 20.3,13.5 C20.3,17.257 17.257,20.3 13.5,20.3 L13.5,20.3 Z M13.925,9.25 L12.65,9.25 L12.65,14.35 L17.1125,17.0275 L17.75,15.982 L13.925,13.7125 L13.925,9.25" id="Fill-101-Copy" fill="#FCF8EB"></path>
                </g>
            </g>
        </g>
    </g>
</svg>